# xmcd CD database file
#
# Track frame offsets:
#	150
#	12075
#	35444
#	54365
#	75495
#	90760
#	110624
#	123714
#	136290
#	162828
#	176847
#	194814
#	212773
#
# Disc length: 3173 seconds
#
# Revision: 1
# Processed by: cddbd v1.5.2PL0 Copyright (c) Steve Scherf et al.
# Submitted via: CDex 1.79
#
DISCID=aa0c630d
DTITLE=Dixie Brotherhood - Train to New Orleans
DYEAR=2015
DGENRE=Jazz
TTITLE0=South
TTITLE1=All of me
TTITLE2=Royal Garden Blues
TTITLE3=St. James Infirmary
TTITLE4=I've Found a new Baby
TTITLE5=Basin Street Blues
TTITLE6=Mack The Knife
TTITLE7=Indiana
TTITLE8=Tin Roof Blues
TTITLE9=Alexander's Ragtime Band
TTITLE10=Tiger Rag
TTITLE11=Bei mir bist du shoen
TTITLE12=When the Saints Go Marching In
EXTD=YEAR: 2015
EXTT0=
EXTT1=
EXTT2=
EXTT3=
EXTT4=
EXTT5=
EXTT6=
EXTT7=
EXTT8=
EXTT9=
EXTT10=
EXTT11=
EXTT12=
PLAYORDER=
